<svg xmlns="http://www.w3.org/2000/svg" viewBox="0 0 400 400"><path fill="none" d="M158.4 258.8H242l20.2-117.7h-126z"/><path fill="#2684ff" d="M13 20.1C5.9 20 .1 25.7 0 32.8c0 .7 0 1.5.2 2.2l54.4 330.3c1.4 8.3 8.6 14.5 17 14.5h261c6.3.1 11.8-4.5 12.8-10.8l54.4-334c1.2-7-3.5-13.6-10.5-14.8-.7-.1-1.4-.2-2.1-.2H13zm229 238.7h-83.3L136.1 141h126L242 258.8z"/><linearGradient id="a" x1="410.38" x2="211.609" y1="227.8" y2="72.602" gradientTransform="matrix(1 0 0 -1 0 401.87)" gradientUnits="userSpaceOnUse"><stop offset=".18" stop-color="#0052cc"/><stop offset="1" stop-color="#2684ff"/></linearGradient><path fill="url(#a)" d="M382.5 141.1H262.2L242 258.8h-83.3L60.4 375.6c3.1 2.7 7.1 4.2 11.2 4.2h261.1c6.3.1 11.8-4.5 12.8-10.8l37-227.9z"/></svg>