<svg xmlns="http://www.w3.org/2000/svg" width="16" height="11" viewBox="0 0 16 11">
    <g fill="none" fill-rule="evenodd">
        <g stroke="#B3B3B3" stroke-linecap="round" stroke-linejoin="round">
            <path d="M1 2.125h3.335M1 5.125h3.335"/>
        </g>
        <path fill="#B3B3B3" d="M15.089 7.322c0 .027-.06.084-.152.084H9.544c-.007 0-.014 0-.021.002-.016 0-.032 0-.048.003l-.042.01c-.014.002-.028.008-.042.011a1.977 1.977 0 0 0-.043.018.218.218 0 0 0-.036.02.143.143 0 0 0-.041.027l-.018.01-2.595 2.102V7.85a.45.45 0 0 0-.455-.444h-1.14c-.092 0-.152-.057-.152-.084V.972c0-.026.06-.082.152-.082h9.874c.092 0 .152.056.152.083v6.35zM14.937 0H5.063C4.477 0 4 .436 4 .973v6.35c0 .536.477.972 1.063.972h.684v2.26a.447.447 0 0 0 .455.445.456.456 0 0 0 .291-.1L9.71 8.294h5.228c.586 0 1.063-.436 1.063-.973V.972C16 .437 15.523 0 14.937 0z"/>
    </g>
</svg>
