<svg xmlns="http://www.w3.org/2000/svg" width="22" height="22" viewBox="0 0 22 22">
    <g fill="none" fill-rule="evenodd">
        <rect width="22" height="22" fill="#F7F7F7" rx="4"/>
        <path fill="#000" fill-rule="nonzero" d="M18 11a7 7 0 1 1-14 0 7 7 0 0 1 14 0zm-6.812-4.685c-1.538 0-2.52.647-3.29 1.8a.34.34 0 0 0 .077.458l.98.743a.339.339 0 0 0 .47-.06c.504-.64.85-1.01 1.617-1.01.577 0 1.29.37 1.29.93 0 .422-.35.64-.918.959-.664.372-1.543.835-1.543 1.994v.113c0 .187.152.339.339.339h1.58a.339.339 0 0 0 .339-.34v-.037c0-.803 2.348-.837 2.348-3.01 0-1.638-1.698-2.88-3.29-2.88zm-.188 7a1.3 1.3 0 0 0-1.298 1.298A1.3 1.3 0 0 0 11 15.91a1.3 1.3 0 0 0 1.298-1.298A1.3 1.3 0 0 0 11 13.315z"/>
    </g>
</svg>
