<?xml version="1.0" standalone="no"?><!DOCTYPE svg PUBLIC "-//W3C//DTD SVG 1.1//EN" "http://www.w3.org/Graphics/SVG/1.1/DTD/svg11.dtd"><svg t="1585828206346" class="icon" viewBox="0 0 1024 1024" version="1.1" xmlns="http://www.w3.org/2000/svg" p-id="1709" xmlns:xlink="http://www.w3.org/1999/xlink" width="200" height="200"><defs><style type="text/css"></style></defs><path d="M512.672 70.4L114.592 467.232a63.648 63.648 0 0 0 0 89.664l398.08 396.704 22.656-22.496c116.448-116 187.68-187.04 229.792-229.12l43.392-43.456a171.2 171.2 0 0 0 7.936-8.32l2.496-2.368-0.192-0.256 1.984-2.496 88.448-88.256c12.16-11.968 18.816-27.872 18.816-44.864 0-16.96-6.656-32.832-18.752-44.8-53.216-53.12-114.56-114.656-176.256-176.512-69.12-69.312-138.656-139.072-197.664-197.824L512.64 70.4z m0 90.336c53.76 53.632 114.56 114.56 175.04 175.136 61.504 61.696 122.688 123.04 175.84 176.064-43.328 43.2-73.856 73.664-94.72 95.68-4 3.616-8.032 7.616-12.192 11.712-7.168 7.04-14.208 13.824-15.776 15.296l0.576 0.64a284289.152 284289.152 0 0 1-228.704 228L159.776 512.512 512.64 160.736z m0 188.896L349.696 512l162.976 162.368L675.744 512l-163.072-162.368z m0 90.304L585.056 512l-72.384 72.064L440.352 512l72.32-72.064z" p-id="1710" data-spm-anchor-id="a313x.7781069.0.i2" fill="#ffffff"></path></svg>