<svg xmlns="http://www.w3.org/2000/svg" width="128" height="115" viewBox="0 0 128 115">
    <g fill="none" fill-rule="evenodd">
        <path fill="#E7E7E7" fill-rule="nonzero" d="M60 114C28.52 114 3 88.48 3 57S28.52 0 60 0s57 25.52 57 57-25.52 57-57 57zm0-6c28.167 0 51-22.833 51-51S88.167 6 60 6 9 28.833 9 57s22.833 51 51 51z"/>
        <path fill="#B4B4B4" fill-rule="nonzero" d="M60 104c-25.957 0-47-21.043-47-47s21.043-47 47-47 47 21.043 47 47-21.043 47-47 47zm0-6c22.644 0 41-18.356 41-41S82.644 16 60 16 19 34.356 19 57s18.356 41 41 41z"/>
        <path fill="#4A4A4A" fill-rule="nonzero" d="M60 94c-20.435 0-37-16.565-37-37s16.565-37 37-37 37 16.565 37 37-16.565 37-37 37zm0-6c17.12 0 31-13.88 31-31 0-17.12-13.88-31-31-31-17.12 0-31 13.88-31 31 0 17.12 13.88 31 31 31z"/>
        <path fill="#E7E7E7" d="M58 75c40.673 0 58 40 58 40H0s17.327-40 58-40z"/>
        <path fill="#4A4A4A" d="M64 67h36v24H64z"/>
        <path fill="#4A4A4A" d="M82 51l24 18H58z"/>
        <path fill="#E7E7E7" d="M76 73h12v18H76z"/>
        <path fill="#B3B3B3" d="M84 85c30.855 0 44 30 44 30H40s13.145-30 44-30z"/>
    </g>
</svg>
