<svg xmlns="http://www.w3.org/2000/svg" width="30" height="30" viewBox="0 0 30 30">
    <g fill="none" fill-rule="evenodd" transform="translate(1 1)">
        <rect width="28" height="28" stroke="#E7E7E7" rx="2"/>
        <path fill="#B3B3B3" d="M14.5 13c.644 0 1.166.447 1.166 1 0 .553-.522 1-1.166 1-.644 0-1.166-.447-1.166-1 0-.553.522-1 1.166-1zm-5.334 0c.644 0 1.167.447 1.167 1 0 .553-.523 1-1.167 1S8 14.553 8 14c0-.553.522-1 1.166-1zm10.668 0c.644 0 1.166.447 1.166 1 0 .553-.522 1-1.166 1-.644 0-1.167-.447-1.167-1 0-.553.523-1 1.167-1z"/>
    </g>
</svg>
