<svg xmlns="http://www.w3.org/2000/svg" width="122" height="121" viewBox="0 0 122 121">
    <g fill="none" fill-rule="evenodd">
        <path fill="#979797" fill-rule="nonzero" d="M84 96h-4V0h4zM76.217 29.18l2.603 3.037L61.783 46.82l-2.603-3.037zM87.783 29.18l-2.603 3.037 17.037 14.603 2.603-3.037z"/>
        <circle cx="82" cy="28" r="8" fill="#D8D8D8"/>
        <path fill="#E7E7E7" d="M0 120.56h120.067s-6.091-18.932-19.595-22.415c-13.505-3.483-17.673-2.203-33.642.155C50.861 100.657 0 120.56 0 120.56z"/>
        <path fill="#B3B3B3" fill-rule="nonzero" d="M110.774 14.333a2 2 0 1 1 2.21 3.334l-7.993 5.296-8.006-4.715a2 2 0 1 1 2.03-3.447l5.852 3.446 5.907-3.914z"/>
        <path fill="#E7E7E7" fill-rule="nonzero" d="M118.774 24.333a2 2 0 1 1 2.21 3.334l-7.993 5.296-8.006-4.715a2 2 0 1 1 2.03-3.447l5.852 3.446 5.907-3.914z"/>
        <path fill="#B3B3B3" fill-rule="nonzero" d="M74.774 4.333a2 2 0 1 1 2.21 3.334l-7.993 5.296-8.006-4.715a2 2 0 1 1 2.03-3.447l5.852 3.446 5.907-3.914z"/>
        <path fill="#4A4A4A" d="M14 59.99C14 53.368 19.366 48 25.996 48h4.008C36.629 48 42 53.382 42 59.99V120H14V59.99z"/>
        <path fill="#4A4A4A" fill-rule="nonzero" d="M30 50h-4V27.56h4z"/>
        <path fill="#D8D8D8" d="M8.143 11.799L13.8 6.142 26.528 18.87l-5.657 5.657zM29.356 33.012l5.657-5.657L47.74 40.083l-5.657 5.657z"/>
        <path fill="#979797" fill-rule="nonzero" d="M36.426 31.598l-2.828 2.828-14.142-14.142 2.828-2.828z"/>
        <path fill="#D8D8D8" d="M13.799 45.74l-5.657-5.657L20.87 27.355l5.657 5.657zM35.012 24.526l-5.657-5.656L42.083 6.142l5.657 5.656z"/>
        <path fill="#979797" fill-rule="nonzero" d="M33.598 17.456l2.828 2.828-14.142 14.142-2.828-2.828z"/>
        <path fill="#595959" d="M22 102h12v18H22zM20 64c0-4.418 3.59-8 8-8 4.418 0 8 3.578 8 8v10H20V64z"/>
    </g>
</svg>
