<svg xmlns="http://www.w3.org/2000/svg" width="11" height="12" viewBox="0 0 11 12">
    <path fill="#4A4A4A" fill-rule="nonzero" d="M9.821 1.5H8.643V.281A.288.288 0 0 0 8.348 0h-.982a.288.288 0 0 0-.295.281V1.5H3.93V.281A.288.288 0 0 0 3.634 0h-.982a.288.288 0 0 0-.295.281V1.5H1.18C.528 1.5 0 2.004 0 2.625v8.25C0 11.496.528 12 1.179 12H9.82c.651 0 1.179-.504 1.179-1.125v-8.25c0-.621-.528-1.125-1.179-1.125zm-.147 9.375H1.326a.144.144 0 0 1-.147-.14V3.75H9.82v6.984c0 .078-.066.141-.147.141zM8.376 6.172L4.882 9.481a.305.305 0 0 1-.416-.002L2.622 7.705a.272.272 0 0 1 .001-.398l.558-.528a.305.305 0 0 1 .417.002l1.083 1.042L7.408 5.24a.305.305 0 0 1 .417.002l.553.533a.272.272 0 0 1-.002.397z"/>
</svg>
