<svg xmlns="http://www.w3.org/2000/svg" width="12" height="12" viewBox="0 0 12 12">
    <path fill="#000" fill-rule="nonzero" d="M3.43 10.285a1.715 1.715 0 1 1-3.43 0 1.715 1.715 0 0 1 3.43 0zm4.706 1.265A8.145 8.145 0 0 0 .45 3.864a.428.428 0 0 0-.45.428V5.58c0 .225.174.414.399.43A6.002 6.002 0 0 1 5.99 11.6.429.429 0 0 0 6.42 12h1.287a.428.428 0 0 0 .429-.45zm3.864.008C11.775 5.295 6.736.226.442 0A.428.428 0 0 0 0 .43v1.288c0 .23.183.419.414.428a9.859 9.859 0 0 1 9.44 9.441.43.43 0 0 0 .43.414h1.287c.242 0 .437-.2.429-.442z"/>
</svg>
