<svg xmlns="http://www.w3.org/2000/svg" viewBox="0 0 30 30"><title>7</title><g id="Layer_2" data-name="Layer 2"><g id="Layer_1-2" data-name="Layer 1"><path d="M7.11,2.58A2.86,2.86,0,0,0,4.26,5.43V6A.65.65,0,0,0,4,6.14a.73.73,0,0,0,0,1l.52.52,0,0,0,0,0,0,0,0,0,0h0l0,0h.56l0,0h0l0,0,0,0,0,0,0,0,.06,0L6,7.18a.73.73,0,0,0,0-1A.7.7,0,0,0,5.72,6V5.43A1.39,1.39,0,0,1,7.11,4a.73.73,0,0,0,0-1.46Z"/><path d="M19.73,27.32a.73.73,0,0,0-.73.73v.49h-.49a.73.73,0,0,0,0,1.46h1.22a.74.74,0,0,0,.74-.73V28.05A.73.73,0,0,0,19.73,27.32Z"/><path d="M16.15,28.54H13.78a.73.73,0,1,0,0,1.46h2.37a.73.73,0,1,0,0-1.46Z"/><path d="M6.68,28.54H4.32a.73.73,0,1,0,0,1.46H6.68a.73.73,0,1,0,0-1.46Z"/><path d="M11.42,28.54H9.05a.73.73,0,0,0,0,1.46h2.37a.73.73,0,0,0,0-1.46Z"/><path d="M2,28.54H1.46v-.49a.72.72,0,0,0-.73-.73.73.73,0,0,0-.73.73v1.22A.73.73,0,0,0,.73,30H2a.73.73,0,0,0,0-1.46Z"/><path d="M.73,26.41a.72.72,0,0,0,.73-.73V23.32a.73.73,0,1,0-1.46,0v2.36A.73.73,0,0,0,.73,26.41Z"/><path d="M.73,21.68A.73.73,0,0,0,1.46,21V18.58a.73.73,0,0,0-1.46,0V21A.73.73,0,0,0,.73,21.68Z"/><path d="M.73,17a.73.73,0,0,0,.73-.73V13.85a.73.73,0,1,0-1.46,0v2.37A.73.73,0,0,0,.73,17Z"/><path d="M2,9.53H.73a.74.74,0,0,0-.73.74v1.22a.73.73,0,1,0,1.46,0V11H2A.74.74,0,0,0,2,9.53Z"/><path d="M13.78,11h2.37a.74.74,0,0,0,0-1.47H13.78a.74.74,0,0,0,0,1.47Z"/><path d="M6.68,9.53H4.32a.74.74,0,0,0,0,1.47H6.68a.74.74,0,1,0,0-1.47Z"/><path d="M18.51,11H19v.49a.74.74,0,0,0,1.47,0V10.27a.74.74,0,0,0-.74-.74H18.51a.74.74,0,0,0,0,1.47Z"/><path d="M19.73,13.12a.73.73,0,0,0-.73.73v2.37a.74.74,0,0,0,1.47,0V13.85A.74.74,0,0,0,19.73,13.12Z"/><path d="M19.73,22.58a.74.74,0,0,0-.73.74v2.36a.74.74,0,0,0,1.47,0V23.32A.74.74,0,0,0,19.73,22.58Z"/><path d="M29.27,0h-19a.74.74,0,0,0-.74.73v8.8H9.05a.74.74,0,0,0,0,1.47h.48v8.73a.74.74,0,0,0,.74.74H19V21a.74.74,0,0,0,1.47,0v-.48h8.8a.74.74,0,0,0,.73-.74V.73A.73.73,0,0,0,29.27,0Zm-.73,19H20.47v-.42a.74.74,0,0,0-1.47,0V19H11V11h.42a.74.74,0,0,0,0-1.47H11V1.46H28.54Z"/></g></g></svg>