<svg xmlns="http://www.w3.org/2000/svg" width="1499" height="512" viewBox="0 0 1499 512">
  <g fill="none" fill-rule="evenodd">
    <rect width="511.854" height="512" fill="#FFFFFF" rx="255.927"/>
    <g fill-rule="nonzero" transform="translate(140.057 140.095)">
      <ellipse cx="29.064" cy="29.074" fill="#402E96" rx="28.137" ry="28.145"/>
      <ellipse cx="113.475" cy="29.074" fill="#402E96" rx="28.137" ry="28.145"/>
      <ellipse cx="197.886" cy="29.074" fill="#402E96" rx="28.137" ry="28.145"/>
      <ellipse cx="29.064" cy="113.509" fill="#000000" opacity=".1" rx="28.137" ry="28.145"/>
      <ellipse cx="113.475" cy="113.509" fill="#402E96" rx="28.137" ry="28.145"/>
      <ellipse cx="197.886" cy="113.509" fill="#000000" opacity=".1" rx="28.137" ry="28.145"/>
      <ellipse cx="29.064" cy="197.945" fill="#000000" opacity=".1" rx="28.137" ry="28.145"/>
      <ellipse cx="113.475" cy="197.945" fill="#402E96" rx="28.137" ry="28.145"/>
      <ellipse cx="197.886" cy="197.945" fill="#000000" opacity=".1" rx="28.137" ry="28.145"/>
    </g>
    <path fill="#FFFFFF" d="M839.247167,189.121881 L776.914691,189.121881 L776.914691,350.757561 L744.534183,350.757561 L744.534183,189.121881 L682.471545,189.121881 L682.471545,158.47619 L839.247167,158.47619 L839.247167,189.121881 Z M921.81746,217.869167 L921.81746,249.870862 C918.309572,249.32846 914.801684,249.057259 911.563633,249.057259 C887.278252,249.057259 876.214912,263.159701 876.214912,287.838975 L876.214912,350.757561 L844.913756,350.757561 L844.913756,218.682769 L875.4054,218.682769 L875.4054,239.836432 C881.611664,225.462789 896.182892,217.055564 913.452496,217.055564 C917.230222,217.055564 920.468272,217.597966 921.81746,217.869167 Z M1004.38775,326.62069 C1023.81606,326.62069 1041.08566,312.247047 1041.08566,284.584565 C1041.08566,257.193284 1023.81606,243.090842 1004.38775,243.090842 C985.229287,243.090842 967.689845,257.193284 967.689845,284.584565 C967.689845,311.975846 985.229287,326.62069 1004.38775,326.62069 Z M1004.38775,214.614757 C1043.78404,214.614757 1072.65666,244.175645 1072.65666,284.584565 C1072.65666,325.264686 1043.78404,354.825573 1004.38775,354.825573 C965.261307,354.825573 936.388688,325.264686 936.388688,284.584565 C936.388688,244.175645 965.261307,214.614757 1004.38775,214.614757 Z M1160.6237,326.62069 C1180.052,326.62069 1197.32161,312.247047 1197.32161,284.584565 C1197.32161,257.193284 1180.052,243.090842 1160.6237,243.090842 C1141.46523,243.090842 1123.92579,257.193284 1123.92579,284.584565 C1123.92579,311.975846 1141.46523,326.62069 1160.6237,326.62069 Z M1160.6237,214.614757 C1200.01998,214.614757 1228.8926,244.175645 1228.8926,284.584565 C1228.8926,325.264686 1200.01998,354.825573 1160.6237,354.825573 C1121.49725,354.825573 1092.62464,325.264686 1092.62464,284.584565 C1092.62464,244.175645 1121.49725,214.614757 1160.6237,214.614757 Z M1290.14573,402.285714 L1259.11441,402.285714 L1259.11441,218.682769 L1289.33622,218.682769 L1289.33622,236.582022 C1295.81232,225.191589 1310.92322,215.69956 1331.16104,215.69956 C1370.01765,215.69956 1391.87449,245.531649 1391.87449,284.584565 C1391.87449,324.179882 1367.85895,354.011971 1330.08169,354.011971 C1311.19306,354.011971 1296.89167,345.875947 1290.14573,335.841517 L1290.14573,402.285714 Z M1360.57333,284.584565 C1360.57333,259.905292 1346.27194,243.633243 1325.22461,243.633243 C1304.71696,243.633243 1289.87589,259.905292 1289.87589,284.584565 C1289.87589,309.80624 1304.71696,326.078288 1325.22461,326.078288 C1346.0021,326.078288 1360.57333,309.80624 1360.57333,284.584565 Z M1499,217.869167 L1499,249.870862 C1495.49211,249.32846 1491.98422,249.057259 1488.74617,249.057259 C1464.46079,249.057259 1453.39745,263.159701 1453.39745,287.838975 L1453.39745,350.757561 L1422.0963,350.757561 L1422.0963,218.682769 L1452.58794,218.682769 L1452.58794,239.836432 C1458.7942,225.462789 1473.36543,217.055564 1490.63504,217.055564 C1494.41276,217.055564 1497.65081,217.597966 1499,217.869167 Z"/>
  </g>
</svg>
